<?xml version="1.0" encoding="UTF-8" standalone="no"?>
<!DOCTYPE svg PUBLIC "-//W3C//DTD SVG 1.1//EN" "http://www.w3.org/Graphics/SVG/1.1/DTD/svg11.dtd">
<svg width="100%" height="100%" viewBox="0 0 216 40" version="1.1" xmlns="http://www.w3.org/2000/svg" xmlns:xlink="http://www.w3.org/1999/xlink" xml:space="preserve" xmlns:serif="http://www.serif.com/" style="fill-rule:evenodd;clip-rule:evenodd;stroke-linejoin:round;stroke-miterlimit:2;">
    <path d="M20,28.436C16.531,28.436 13.303,30.217 11.452,33.151L9.154,36.793L10.037,37.351C10.313,37.51 10.594,37.662 10.878,37.808L13.144,34.219C14.629,31.865 17.217,30.437 20,30.437C22.783,30.437 25.371,31.865 26.856,34.219L29.121,37.808C29.405,37.662 29.686,37.51 29.962,37.351L30.846,36.793L28.548,33.151C26.696,30.216 23.47,28.436 20,28.436ZM20.123,36.443L20,36.438C19.386,36.438 18.824,36.774 18.531,37.307L18.477,37.417L17.369,39.834C18.066,39.926 18.774,39.982 19.492,40L20,38.891L20.507,40C21.225,39.982 21.933,39.926 22.631,39.834L21.524,37.417L21.47,37.307C21.197,36.81 20.689,36.484 20.123,36.443ZM21,12.406L21,0L19,0L19,12.406L15.789,0.423L13.857,0.941L17.067,12.923L10.866,2.18L9.134,3.18L15.335,13.922L6.565,5.151L5.15,6.567L13.92,15.338L3.18,9.135L2.18,10.868L12.921,17.07L0.94,13.86L0.423,15.792L12.405,19.003L0,19.003L0,21.003L12.405,21.003L0.423,24.215L0.94,26.147L12.921,22.935L2.18,29.139L3.18,30.871L13.92,24.668L5.15,33.44L6.565,34.855L13.122,28.296C13.684,27.734 14,26.971 14,26.175L14,20.435C14,17.121 16.686,14.434 20,14.434C23.314,14.434 26,17.121 26,20.435L26,26.176C26,26.972 26.316,27.735 26.878,28.297L33.435,34.855L34.85,33.44L26.08,24.669L36.82,30.871L37.82,29.139L27.079,22.935L39.06,26.147L39.577,24.215L27.596,21.003L40,21.003L40,19.003L27.595,19.003L39.577,15.792L39.06,13.86L27.079,17.069L37.82,10.868L36.82,9.135L26.078,15.338L34.85,6.566L33.435,5.151L24.664,13.923L30.866,3.18L29.134,2.18L22.932,12.923L26.143,0.941L24.211,0.423L21,12.406ZM20,32.437C18.012,32.437 16.179,33.511 15.207,35.245L13.202,38.82C13.841,39.051 14.494,39.25 15.161,39.416L16.951,36.224C17.569,35.121 18.736,34.438 20,34.438C21.265,34.438 22.43,35.121 23.049,36.224L24.838,39.416C25.505,39.25 26.158,39.051 26.797,38.82L24.793,35.245C23.821,33.511 21.988,32.437 20,32.437Z" style="fill:rgb(7,108,69);fill-rule:nonzero;"/>
    <path d="M208.695,13.715C210.09,13.715 211.334,14.003 212.428,14.579C213.544,15.154 214.412,16.007 215.035,17.137C215.678,18.267 216,19.631 216,21.23L216,31.622L212.364,31.622L212.364,21.773C212.364,20.196 211.967,18.991 211.173,18.16C210.379,17.307 209.296,16.881 207.923,16.881C206.55,16.881 205.456,17.307 204.641,18.16C203.847,18.991 203.45,20.196 203.45,21.773L203.45,31.622L199.814,31.622L199.814,21.773C199.814,20.196 199.417,18.991 198.623,18.16C197.829,17.307 196.746,16.881 195.373,16.881C194,16.881 192.906,17.307 192.091,18.16C191.297,18.991 190.9,20.196 190.9,21.773L190.9,31.622L187.232,31.622L187.232,14.003L190.9,14.003L190.9,16.017C191.501,15.293 192.262,14.728 193.185,14.323C194.107,13.918 195.094,13.715 196.145,13.715C197.561,13.715 198.827,14.014 199.942,14.611C201.058,15.207 201.916,16.071 202.517,17.201C203.053,16.135 203.89,15.293 205.027,14.674C206.164,14.035 207.387,13.715 208.695,13.715Z" style="fill:rgb(0,53,33);fill-rule:nonzero;"/>
    <path d="M183.518,14.003L183.518,31.622L179.849,31.622L179.849,29.544C179.27,30.268 178.509,30.844 177.565,31.27C176.642,31.675 175.655,31.878 174.604,31.878C173.21,31.878 171.955,31.59 170.839,31.015C169.745,30.439 168.876,29.586 168.233,28.456C167.61,27.326 167.299,25.962 167.299,24.363L167.299,14.003L170.936,14.003L170.936,23.82C170.936,25.397 171.333,26.612 172.126,27.465C172.92,28.297 174.003,28.712 175.376,28.712C176.749,28.712 177.833,28.297 178.627,27.465C179.442,26.612 179.849,25.397 179.849,23.82L179.849,14.003L183.518,14.003Z" style="fill:rgb(0,53,33);fill-rule:nonzero;"/>
    <path d="M157.833,31.91C156.438,31.91 155.183,31.665 154.068,31.174C152.974,30.663 152.105,29.981 151.461,29.128C150.818,28.254 150.474,27.284 150.432,26.218L154.229,26.218C154.293,26.964 154.647,27.593 155.291,28.105C155.956,28.595 156.782,28.84 157.768,28.84C158.798,28.84 159.592,28.648 160.15,28.265C160.729,27.86 161.019,27.348 161.019,26.73C161.019,26.069 160.697,25.578 160.053,25.259C159.431,24.939 158.433,24.587 157.06,24.203C155.73,23.841 154.647,23.489 153.81,23.148C152.974,22.807 152.244,22.285 151.622,21.581C151.021,20.878 150.721,19.951 150.721,18.799C150.721,17.861 151,17.009 151.558,16.241C152.116,15.453 152.909,14.834 153.939,14.387C154.99,13.939 156.192,13.715 157.543,13.715C159.56,13.715 161.179,14.227 162.402,15.25C163.647,16.252 164.312,17.627 164.397,19.375L160.729,19.375C160.665,18.586 160.343,17.957 159.764,17.488C159.184,17.019 158.401,16.785 157.414,16.785C156.449,16.785 155.709,16.966 155.194,17.328C154.679,17.691 154.422,18.171 154.422,18.767C154.422,19.236 154.593,19.631 154.937,19.951C155.28,20.27 155.698,20.526 156.192,20.718C156.685,20.889 157.414,21.112 158.38,21.39C159.667,21.731 160.718,22.082 161.533,22.445C162.37,22.786 163.089,23.297 163.689,23.98C164.29,24.662 164.601,25.568 164.623,26.698C164.623,27.7 164.344,28.595 163.786,29.384C163.228,30.172 162.434,30.791 161.405,31.238C160.396,31.686 159.206,31.91 157.833,31.91Z" style="fill:rgb(0,53,33);fill-rule:nonzero;"/>
    <path d="M134.382,16.593C135.005,15.783 135.852,15.101 136.925,14.546C137.997,13.992 139.209,13.715 140.561,13.715C142.106,13.715 143.511,14.099 144.776,14.866C146.064,15.612 147.072,16.668 147.801,18.032C148.531,19.396 148.895,20.963 148.895,22.733C148.895,24.502 148.531,26.09 147.801,27.497C147.072,28.883 146.064,29.97 144.776,30.759C143.511,31.526 142.106,31.91 140.561,31.91C139.209,31.91 138.008,31.643 136.957,31.11C135.906,30.556 135.048,29.874 134.382,29.064L134.382,40L130.714,40L130.714,14.003L134.382,14.003L134.382,16.593ZM145.163,22.733C145.163,21.517 144.905,20.473 144.39,19.599C143.897,18.703 143.232,18.032 142.395,17.584C141.58,17.115 140.7,16.881 139.756,16.881C138.834,16.881 137.954,17.115 137.118,17.584C136.303,18.053 135.637,18.735 135.123,19.631C134.629,20.526 134.382,21.581 134.382,22.797C134.382,24.012 134.629,25.078 135.123,25.994C135.637,26.89 136.303,27.572 137.118,28.041C137.954,28.51 138.834,28.744 139.756,28.744C140.7,28.744 141.58,28.51 142.395,28.041C143.232,27.55 143.897,26.847 144.39,25.93C144.905,25.014 145.163,23.948 145.163,22.733Z" style="fill:rgb(0,53,33);fill-rule:nonzero;"/>
    <path d="M125.222,11.669C124.557,11.669 123.999,11.445 123.549,10.997C123.098,10.549 122.873,9.995 122.873,9.334C122.873,8.673 123.098,8.119 123.549,7.672C123.999,7.224 124.557,7 125.222,7C125.866,7 126.413,7.224 126.863,7.672C127.314,8.119 127.539,8.673 127.539,9.334C127.539,9.995 127.314,10.549 126.863,10.997C126.413,11.445 125.866,11.669 125.222,11.669ZM127.024,14.003L127.024,31.622L123.356,31.622L123.356,14.003L127.024,14.003Z" style="fill:rgb(0,53,33);fill-rule:nonzero;"/>
    <path d="M111.652,31.91C109.979,31.91 108.466,31.537 107.115,30.791C105.763,30.023 104.701,28.957 103.929,27.593C103.157,26.207 102.771,24.608 102.771,22.797C102.771,21.006 103.167,19.418 103.961,18.032C104.755,16.646 105.838,15.58 107.211,14.834C108.584,14.088 110.118,13.715 111.813,13.715C113.508,13.715 115.042,14.088 116.415,14.834C117.788,15.58 118.871,16.646 119.665,18.032C120.459,19.418 120.855,21.006 120.855,22.797C120.855,24.587 120.448,26.175 119.633,27.561C118.817,28.947 117.702,30.023 116.286,30.791C114.892,31.537 113.347,31.91 111.652,31.91ZM111.652,28.744C112.596,28.744 113.476,28.52 114.291,28.073C115.128,27.625 115.803,26.953 116.318,26.058C116.833,25.163 117.09,24.076 117.09,22.797C117.09,21.517 116.844,20.441 116.35,19.567C115.857,18.672 115.203,18 114.387,17.552C113.572,17.105 112.693,16.881 111.749,16.881C110.805,16.881 109.925,17.105 109.11,17.552C108.316,18 107.683,18.672 107.211,19.567C106.739,20.441 106.503,21.517 106.503,22.797C106.503,24.694 106.986,26.165 107.952,27.209C108.938,28.233 110.172,28.744 111.652,28.744Z" style="fill:rgb(0,53,33);fill-rule:nonzero;"/>
    <path d="M92.258,31.91C90.584,31.91 89.072,31.537 87.72,30.791C86.369,30.023 85.307,28.957 84.535,27.593C83.762,26.207 83.376,24.608 83.376,22.797C83.376,21.006 83.773,19.418 84.567,18.032C85.361,16.646 86.444,15.58 87.817,14.834C89.19,14.088 90.724,13.715 92.419,13.715C94.113,13.715 95.647,14.088 97.02,14.834C98.393,15.58 99.477,16.646 100.27,18.032C101.064,19.418 101.461,21.006 101.461,22.797C101.461,24.587 101.053,26.175 100.238,27.561C99.423,28.947 98.307,30.023 96.891,30.791C95.497,31.537 93.953,31.91 92.258,31.91ZM92.258,28.744C93.202,28.744 94.081,28.52 94.896,28.073C95.733,27.625 96.409,26.953 96.924,26.058C97.439,25.163 97.696,24.076 97.696,22.797C97.696,21.517 97.449,20.441 96.956,19.567C96.463,18.672 95.808,18 94.993,17.552C94.178,17.105 93.298,16.881 92.354,16.881C91.41,16.881 90.531,17.105 89.716,17.552C88.922,18 88.289,18.672 87.817,19.567C87.345,20.441 87.109,21.517 87.109,22.797C87.109,24.694 87.592,26.165 88.557,27.209C89.544,28.233 90.777,28.744 92.258,28.744Z" style="fill:rgb(0,53,33);fill-rule:nonzero;"/>
    <path d="M72.863,31.91C71.19,31.91 69.677,31.537 68.326,30.791C66.974,30.023 65.912,28.957 65.14,27.593C64.368,26.207 63.982,24.608 63.982,22.797C63.982,21.006 64.379,19.418 65.172,18.032C65.966,16.646 67.049,15.58 68.422,14.834C69.795,14.088 71.329,13.715 73.024,13.715C74.719,13.715 76.253,14.088 77.626,14.834C78.999,15.58 80.082,16.646 80.876,18.032C81.67,19.418 82.067,21.006 82.067,22.797C82.067,24.587 81.659,26.175 80.844,27.561C80.028,28.947 78.913,30.023 77.497,30.791C76.103,31.537 74.558,31.91 72.863,31.91ZM72.863,28.744C73.807,28.744 74.687,28.52 75.502,28.073C76.339,27.625 77.014,26.953 77.529,26.058C78.044,25.163 78.302,24.076 78.302,22.797C78.302,21.517 78.055,20.441 77.561,19.567C77.068,18.672 76.414,18 75.599,17.552C74.783,17.105 73.904,16.881 72.96,16.881C72.016,16.881 71.136,17.105 70.321,17.552C69.527,18 68.894,18.672 68.422,19.567C67.951,20.441 67.715,21.517 67.715,22.797C67.715,24.694 68.197,26.165 69.163,27.209C70.149,28.233 71.383,28.744 72.863,28.744Z" style="fill:rgb(0,53,33);fill-rule:nonzero;"/>
    <path d="M55.669,28.68L63.231,28.68L63.231,31.622L52,31.622L52,9.398L55.669,9.398L55.669,28.68Z" style="fill:rgb(0,53,33);fill-rule:nonzero;"/>
    <path d="M83.308,32.398C83.481,33.495 83.822,34.498 84.33,35.41C85.103,36.775 86.165,37.84 87.516,38.608C88.868,39.354 90.38,39.727 92.053,39.727C93.748,39.727 95.293,39.354 96.687,38.608C98.103,37.84 99.219,36.764 100.034,35.378C100.567,34.472 100.926,33.478 101.111,32.398L97.296,32.398C97.168,32.938 96.975,33.43 96.719,33.875C96.205,34.771 95.529,35.442 94.692,35.89C93.877,36.337 92.997,36.561 92.053,36.561C90.573,36.561 89.34,36.05 88.353,35.026C87.715,34.336 87.288,33.46 87.072,32.398L83.308,32.398Z" style="fill:rgb(0,53,33);fill-rule:nonzero;"/>
</svg>
